<?xml version="1.0" encoding="UTF-8"?><svg id="Layer_1" xmlns="http://www.w3.org/2000/svg" width="530" height="262.91" viewBox="0 0 530 262.91"><defs><style>.cls-1{fill:#fff;}</style></defs><g><path class="cls-1" d="m177.81,262.38c-.44,0-.66-.24-.66-.73v-35.99h-8.68c-.44,0-.66-.24-.66-.73v-5.24c0-.49.22-.73.66-.73h24.86c.44,0,.66.24.66.73v5.24c0,.49-.22.73-.66.73h-8.68v35.99c0,.49-.22.73-.66.73h-6.17Z"/><path class="cls-1" d="m199.62,262.38c-.44,0-.66-.24-.66-.73v-41.96c0-.49.22-.73.66-.73h6.1c.44,0,.66.24.66.73v17.17h13.12v-17.17c0-.49.24-.73.73-.73h6.03c.49,0,.73.24.73.73v41.96c0,.49-.24.73-.73.73h-6.03c-.49,0-.73-.24-.73-.73v-18.1h-13.12v18.1c0,.49-.22.73-.66.73h-6.1Z"/><path class="cls-1" d="m234.95,262.38c-.44,0-.66-.24-.66-.73v-41.96c0-.49.22-.73.66-.73h20.75c.44,0,.66.24.66.73v5.24c0,.49-.22.73-.66.73h-13.99v11.53h12.79c.44,0,.66.24.66.73v4.91c0,.49-.22.73-.66.73h-12.79v12.13h13.99c.44,0,.66.24.66.73v5.24c0,.49-.22.73-.66.73h-20.75Z"/><path class="cls-1" d="m284.4,262.91c-4.69,0-8.03-1.15-10.04-3.45-2.01-2.3-2.84-5.44-2.49-9.41.04-.62.29-.93.73-.93h5.96c.44,0,.64.31.6.93-.09,2.08.32,3.66,1.23,4.74.9,1.08,2.31,1.62,4.21,1.62s3.29-.41,4.18-1.23c.88-.82,1.33-2.09,1.33-3.81,0-.93-.12-1.75-.37-2.45-.24-.71-.65-1.36-1.23-1.96-.57-.6-1.33-1.16-2.25-1.69l-7.16-4.24c-2.48-1.5-4.25-3.15-5.34-4.94-1.08-1.79-1.6-4.03-1.56-6.73.04-3.54,1.07-6.24,3.08-8.12,2.01-1.88,5-2.82,8.98-2.82,4.38,0,7.64,1.08,9.81,3.25,2.16,2.17,3.07,5.24,2.72,9.21-.09.66-.31.99-.66.99h-6.1c-.44,0-.64-.33-.6-.99.18-1.81-.18-3.26-1.06-4.34-.88-1.08-2.21-1.62-3.98-1.62-1.5,0-2.66.36-3.48,1.09-.82.73-1.25,1.85-1.29,3.35-.04,1.37.25,2.51.89,3.41.64.91,1.67,1.76,3.08,2.55l6.96,4.11c1.72,1.02,3.08,2.08,4.08,3.18,1,1.11,1.72,2.35,2.19,3.75.46,1.39.67,3.06.63,5,0,3.71-1.04,6.56-3.12,8.55-2.08,1.99-5.39,2.98-9.94,2.98Z"/><path class="cls-1" d="m303.96,262.38c-.44,0-.66-.24-.66-.73v-41.96c0-.49.22-.73.66-.73h6.1c.44,0,.66.24.66.73v41.96c0,.49-.22.73-.66.73h-6.1Z"/><path class="cls-1" d="m325.7,262.38c-.44,0-.66-.24-.66-.73v-35.99h-8.68c-.44,0-.66-.24-.66-.73v-5.24c0-.49.22-.73.66-.73h24.86c.44,0,.66.24.66.73v5.24c0,.49-.22.73-.66.73h-8.68v35.99c0,.49-.22.73-.66.73h-6.17Z"/><path class="cls-1" d="m347.51,262.38c-.44,0-.66-.24-.66-.73v-41.96c0-.49.22-.73.66-.73h20.75c.44,0,.66.24.66.73v5.24c0,.49-.22.73-.66.73h-13.99v11.53h12.79c.44,0,.66.24.66.73v4.91c0,.49-.22.73-.66.73h-12.79v12.13h13.99c.44,0,.66.24.66.73v5.24c0,.49-.22.73-.66.73h-20.75Z"/></g><g><path class="cls-1" d="m112.62,184.89v-113.52c0-22.97-18.69-41.65-41.65-41.65s-41.65,18.69-41.65,41.65v113.52H3.5v-113.52C3.5,34.17,33.77,3.9,70.97,3.9s67.47,30.27,67.47,67.47v113.52h-25.82Z"/><path class="cls-1" d="m70.97,7.4c35.33,0,63.97,28.64,63.97,63.97v110.02h-18.82v-110.02c0-24.94-20.22-45.15-45.15-45.15s-45.15,20.22-45.15,45.15v110.02H7v-110.02C7,36.04,35.64,7.4,70.97,7.4m0-7C31.84.4,0,32.24,0,71.37v117.02h32.82v-117.02c0-21.04,17.12-38.15,38.15-38.15s38.15,17.12,38.15,38.15v117.02h32.82v-117.02C141.94,32.24,110.1.4,70.97.4h0Z"/></g><g><path class="cls-1" d="m206.27,184.89c-29.1,0-52.78-23.26-52.78-51.85,0-14.85,6.6-29.06,17.84-38.85-11.24-9.79-17.84-24-17.84-38.85,0-28.59,23.68-51.85,52.78-51.85h35.43v25.98h-35.43c-14.58,0-26.44,11.6-26.44,25.87s11.74,25.73,26.18,25.86c.07,0,.16,0,.26,0h35.43v25.98h-3.5s-31.93.01-31.93.01c-.09,0-.19,0-.28,0-14.41.13-26.16,11.73-26.16,25.86s11.86,25.87,26.44,25.87h35.43v25.98h-35.43Z"/><path class="cls-1" d="m238.19,7v18.98h-31.93c-16.53,0-29.94,13.15-29.94,29.37s13.25,29.21,29.65,29.36c.1,0,.19,0,.29,0h31.93v18.98h0s-31.93.01-31.93.01c-.1,0-.19,0-.29,0-16.4.15-29.65,13.24-29.65,29.36s13.4,29.37,29.94,29.37h31.93v18.98h-31.93c-27.22,0-49.28-21.65-49.28-48.35,0-15.92,7.85-30.04,19.95-38.85-12.1-8.81-19.95-22.93-19.95-38.85,0-26.7,22.06-48.35,49.28-48.35h31.93m7-7h-38.93c-31.03,0-56.28,24.83-56.28,55.35,0,14.57,5.94,28.57,16.21,38.85-10.27,10.28-16.21,24.28-16.21,38.85,0,30.52,25.25,55.35,56.28,55.35h38.93v-32.98h-38.93c-12.65,0-22.94-10.03-22.94-22.37s10.12-22.18,22.59-22.36c.12,0,.23,0,.34,0h38.93v-32.98h-7s-31.93-.01-31.93-.01c-.11,0-.23,0-.34,0-12.47-.18-22.59-10.19-22.59-22.36s10.29-22.37,22.94-22.37h38.93V0h0Z"/></g><g><path class="cls-1" d="m500.68,184.89v-113.52c0-22.97-18.69-41.65-41.65-41.65s-41.65,18.69-41.65,41.65v113.52h-25.82v-113.52c0-37.2,30.27-67.47,67.47-67.47s67.47,30.27,67.47,67.47v113.52h-25.82Z"/><path class="cls-1" d="m459.03,7.4c35.33,0,63.97,28.64,63.97,63.97v110.02h-18.82v-110.02c0-24.94-20.22-45.15-45.15-45.15s-45.15,20.22-45.15,45.15v110.02h-18.82v-110.02c0-35.33,28.64-63.97,63.97-63.97m0-7c-39.13,0-70.97,31.84-70.97,70.97v117.02h32.82v-117.02c0-21.04,17.12-38.15,38.15-38.15s38.15,17.12,38.15,38.15v117.02h32.82v-117.02c0-39.13-31.84-70.97-70.97-70.97h0Z"/></g><g><path class="cls-1" d="m288.31,184.89v-25.98h35.43c14.58,0,26.44-11.6,26.44-25.87s-11.74-25.73-26.18-25.86c-.07,0-.17,0-.26,0h-35.43v-25.98h3.5s31.93-.01,31.93-.01c.09,0,.19,0,.28,0,14.41-.13,26.16-11.73,26.16-25.86s-11.86-25.87-26.44-25.87h-35.43V3.5h35.43c29.1,0,52.78,23.26,52.78,51.85,0,14.85-6.6,29.06-17.84,38.85,11.24,9.79,17.84,24,17.84,38.85,0,28.59-23.68,51.85-52.78,51.85h-35.43Z"/><path class="cls-1" d="m323.73,7c27.22,0,49.28,21.65,49.28,48.35,0,15.92-7.85,30.04-19.95,38.85,12.1,8.81,19.95,22.93,19.95,38.85,0,26.7-22.06,48.35-49.28,48.35h-31.93v-18.98h31.93c16.53,0,29.94-13.15,29.94-29.37s-13.25-29.21-29.65-29.36c-.1,0-.19,0-.29,0h-31.93v-18.98h0s31.93-.01,31.93-.01c.1,0,.19,0,.29,0,16.4-.15,29.65-13.24,29.65-29.36s-13.4-29.37-29.94-29.37h-31.93V7h31.93m0-7h-38.93v32.98h38.93c12.65,0,22.94,10.03,22.94,22.37s-10.12,22.18-22.59,22.36c-.12,0-.23,0-.34,0h-38.93v32.98h7s31.93.01,31.93.01c.11,0,.23,0,.34,0,12.47.18,22.59,10.19,22.59,22.36s-10.29,22.37-22.94,22.37h-38.93v32.98h38.93c31.03,0,56.28-24.83,56.28-55.35,0-14.57-5.94-28.57-16.21-38.85,10.27-10.28,16.21-24.28,16.21-38.85,0-30.52-25.25-55.35-56.28-55.35h0Z"/></g><rect class="cls-1" x="44.74" y="99.93" width="53.38" height="10.26"/><rect class="cls-1" x="432.34" y="99.93" width="53.38" height="10.26"/><rect class="cls-1" x="259.87" width="10.26" height="188.39"/></svg>