<?xml version="1.0" encoding="UTF-8"?><svg id="Layer_1" xmlns="http://www.w3.org/2000/svg" width="554" height="286.91" viewBox="0 0 554 286.91"><defs><style>.cls-1{fill:#efd6b6;}</style></defs><rect class="cls-1" x="41.09" y="41.43" width="87.14" height="70.5"/><rect class="cls-1" x="197.29" y="35.24" width="161.55" height="137.22"/><rect class="cls-1" x="167.02" y="217.44" width="227.71" height="70.14" rx="9.44" ry="9.44"/><rect class="cls-1" x="238.2" y=".02" width="84.52" height="212.36"/><rect class="cls-1" x="434.19" y="41.43" width="74.99" height="74.99"/><g><g><path d="m189.81,280.38c-3.74,0-6.66-2.96-6.66-6.73v-29.99h-2.68c-3.74,0-6.66-2.96-6.66-6.73v-5.24c0-3.77,2.93-6.73,6.66-6.73h24.86c3.74,0,6.66,2.96,6.66,6.73v5.24c0,3.77-2.93,6.73-6.66,6.73h-2.68v29.99c0,3.77-2.93,6.73-6.66,6.73h-6.17Z"/><path class="cls-1" d="m205.33,230.96c.44,0,.66.24.66.73v5.24c0,.49-.22.73-.66.73h-8.68v35.99c0,.49-.22.73-.66.73h-6.17c-.44,0-.66-.24-.66-.73v-35.99h-8.68c-.44,0-.66-.24-.66-.73v-5.24c0-.49.22-.73.66-.73h24.86m0-12h-24.86c-7.1,0-12.66,5.59-12.66,12.73v5.24c0,5.98,3.9,10.88,9.35,12.31v24.42c0,7.14,5.56,12.73,12.66,12.73h6.17c7.1,0,12.66-5.59,12.66-12.73v-24.42c5.44-1.43,9.35-6.33,9.35-12.31v-5.24c0-7.14-5.56-12.73-12.66-12.73h0Z"/></g><g><path d="m232.24,280.38c-3.77,0-6.73-2.96-6.73-6.73v-12.1h-1.12v12.1c0,3.77-2.93,6.73-6.66,6.73h-6.1c-3.74,0-6.66-2.96-6.66-6.73v-41.96c0-3.77,2.93-6.73,6.66-6.73h6.1c3.74,0,6.66,2.96,6.66,6.73v11.17h1.12v-11.17c0-3.77,2.96-6.73,6.73-6.73h6.03c3.77,0,6.73,2.96,6.73,6.73v41.96c0,3.77-2.96,6.73-6.73,6.73h-6.03Z"/><path class="cls-1" d="m238.27,230.96c.49,0,.73.24.73.73v41.96c0,.49-.24.73-.73.73h-6.03c-.49,0-.73-.24-.73-.73v-18.1h-13.12v18.1c0,.49-.22.73-.66.73h-6.1c-.44,0-.66-.24-.66-.73v-41.96c0-.49.22-.73.66-.73h6.1c.44,0,.66.24.66.73v17.17h13.12v-17.17c0-.49.24-.73.73-.73h6.03m0-12h-6.03c-2.73,0-5.23.82-7.28,2.22-2.04-1.41-4.53-2.22-7.24-2.22h-6.1c-7.1,0-12.66,5.59-12.66,12.73v41.96c0,7.14,5.56,12.73,12.66,12.73h6.1c2.71,0,5.2-.82,7.24-2.22,2.05,1.41,4.55,2.22,7.28,2.22h6.03c7.14,0,12.73-5.59,12.73-12.73v-41.96c0-7.14-5.59-12.73-12.73-12.73h0Z"/></g><g><path d="m246.95,280.38c-3.74,0-6.66-2.96-6.66-6.73v-41.96c0-3.77,2.93-6.73,6.66-6.73h20.75c3.74,0,6.66,2.96,6.66,6.73v5.24c0,3.41-2.38,6.14-5.59,6.65,2.59.92,4.4,3.38,4.4,6.35v4.91c0,3.77-2.93,6.73-6.66,6.73h-6.79v.13h7.99c3.74,0,6.66,2.96,6.66,6.73v5.24c0,3.77-2.93,6.73-6.66,6.73h-20.75Z"/><path class="cls-1" d="m267.7,230.96c.44,0,.66.24.66.73v5.24c0,.49-.22.73-.66.73h-13.99v11.53h12.79c.44,0,.66.24.66.73v4.91c0,.49-.22.73-.66.73h-12.79v12.13h13.99c.44,0,.66.24.66.73v5.24c0,.49-.22.73-.66.73h-20.75c-.44,0-.66-.24-.66-.73v-41.96c0-.49.22-.73.66-.73h20.75m0-12h-20.75c-7.1,0-12.66,5.59-12.66,12.73v41.96c0,7.14,5.56,12.73,12.66,12.73h20.75c7.1,0,12.66-5.59,12.66-12.73v-5.24c0-2.94-.95-5.62-2.55-7.76.87-1.74,1.36-3.72,1.36-5.83v-4.91c0-1.97-.42-3.82-1.19-5.47,1.5-2.09,2.38-4.68,2.38-7.52v-5.24c0-7.14-5.56-12.73-12.66-12.73h0Z"/></g><g><path d="m296.4,280.91c-6.47,0-11.37-1.85-14.56-5.5-3.11-3.56-4.44-8.22-3.95-13.86.28-3.5,2.76-6.09,6.03-6.4-1.35-1.24-2.45-2.55-3.3-3.95-1.67-2.76-2.49-6.1-2.42-9.93.06-5.2,1.74-9.38,4.99-12.41,3.15-2.94,7.55-4.43,13.08-4.43,6,0,10.73,1.68,14.05,5,2.39,2.39,5.09,6.75,4.45,13.99,0,.09-.02.17-.03.26-.44,3.29-2.47,5.19-4.65,5.89.36.34.69.68,1.01,1.03,1.55,1.72,2.7,3.69,3.42,5.87.67,2.01.99,4.36.94,6.96-.01,5.36-1.68,9.67-4.96,12.82-3.23,3.09-7.97,4.65-14.09,4.65Z"/><path class="cls-1" d="m296.27,230.43c4.38,0,7.64,1.08,9.81,3.25,2.16,2.17,3.07,5.24,2.72,9.21-.09.66-.31.99-.66.99h-6.1c-.44,0-.64-.33-.6-.99.18-1.81-.18-3.26-1.06-4.34-.88-1.08-2.21-1.62-3.98-1.62-1.5,0-2.66.36-3.48,1.09-.82.73-1.25,1.85-1.29,3.35-.04,1.37.25,2.51.89,3.41.64.91,1.67,1.76,3.08,2.55l6.96,4.11c1.72,1.02,3.08,2.08,4.08,3.18,1,1.11,1.72,2.35,2.19,3.75.46,1.39.67,3.06.63,5,0,3.71-1.04,6.56-3.12,8.55-2.08,1.99-5.39,2.98-9.94,2.98s-8.03-1.15-10.04-3.45c-2.01-2.3-2.84-5.44-2.49-9.41.04-.62.29-.93.73-.93h5.96c.44,0,.64.31.6.93-.09,2.08.32,3.66,1.23,4.74.9,1.08,2.31,1.62,4.21,1.62s3.29-.41,4.18-1.23c.88-.82,1.33-2.09,1.33-3.81,0-.93-.12-1.75-.37-2.45-.24-.71-.65-1.36-1.23-1.96-.57-.6-1.33-1.16-2.25-1.69l-7.16-4.24c-2.48-1.5-4.25-3.15-5.34-4.94-1.08-1.79-1.6-4.03-1.56-6.73.04-3.54,1.07-6.24,3.08-8.12,2.01-1.88,5-2.82,8.98-2.82m0-12c-7.1,0-12.88,2.04-17.18,6.05-3.08,2.88-6.78,8.12-6.89,16.74-.07,4.58.87,8.72,2.82,12.28-1.75,2.03-2.88,4.64-3.11,7.56-.79,9.11,2.5,14.98,5.41,18.31,4.38,5.01,10.8,7.54,19.07,7.54,7.73,0,13.86-2.12,18.24-6.31,3.1-2.97,6.78-8.33,6.82-17.09.06-3.27-.36-6.28-1.25-8.94-.47-1.42-1.08-2.79-1.82-4.08,1.19-1.72,2.01-3.76,2.31-6.02.02-.17.04-.34.06-.51.85-9.54-2.89-15.47-6.18-18.76-4.49-4.49-10.65-6.77-18.3-6.77h0Z"/></g><g><path d="m315.96,280.38c-3.74,0-6.66-2.96-6.66-6.73v-41.96c0-3.77,2.93-6.73,6.66-6.73h6.1c3.74,0,6.66,2.96,6.66,6.73v41.96c0,3.77-2.93,6.73-6.66,6.73h-6.1Z"/><path class="cls-1" d="m322.06,230.96c.44,0,.66.24.66.73v41.96c0,.49-.22.73-.66.73h-6.1c-.44,0-.66-.24-.66-.73v-41.96c0-.49.22-.73.66-.73h6.1m0-12h-6.1c-7.1,0-12.66,5.59-12.66,12.73v41.96c0,7.14,5.56,12.73,12.66,12.73h6.1c7.1,0,12.66-5.59,12.66-12.73v-41.96c0-7.14-5.56-12.73-12.66-12.73h0Z"/></g><g><path d="m337.7,280.38c-3.74,0-6.66-2.96-6.66-6.73v-29.99h-2.68c-3.74,0-6.66-2.96-6.66-6.73v-5.24c0-3.77,2.93-6.73,6.66-6.73h24.86c3.74,0,6.66,2.96,6.66,6.73v5.24c0,3.77-2.93,6.73-6.66,6.73h-2.68v29.99c0,3.77-2.93,6.73-6.66,6.73h-6.17Z"/><path class="cls-1" d="m353.21,230.96c.44,0,.66.24.66.73v5.24c0,.49-.22.73-.66.73h-8.68v35.99c0,.49-.22.73-.66.73h-6.17c-.44,0-.66-.24-.66-.73v-35.99h-8.68c-.44,0-.66-.24-.66-.73v-5.24c0-.49.22-.73.66-.73h24.86m0-12h-24.86c-7.1,0-12.66,5.59-12.66,12.73v5.24c0,5.98,3.9,10.87,9.35,12.31v24.42c0,7.14,5.56,12.73,12.66,12.73h6.17c7.1,0,12.66-5.59,12.66-12.73v-24.42c5.44-1.43,9.35-6.33,9.35-12.31v-5.24c0-7.14-5.56-12.73-12.66-12.73h0Z"/></g><g><path d="m359.51,280.38c-3.74,0-6.66-2.96-6.66-6.73v-41.96c0-3.77,2.93-6.73,6.66-6.73h20.75c3.74,0,6.66,2.96,6.66,6.73v5.24c0,3.41-2.38,6.14-5.59,6.65,2.59.92,4.4,3.38,4.4,6.35v4.91c0,3.77-2.93,6.73-6.66,6.73h-6.79v.13h7.99c3.74,0,6.66,2.96,6.66,6.73v5.24c0,3.77-2.93,6.73-6.66,6.73h-20.75Z"/><path class="cls-1" d="m380.25,230.96c.44,0,.66.24.66.73v5.24c0,.49-.22.73-.66.73h-13.99v11.53h12.79c.44,0,.66.24.66.73v4.91c0,.49-.22.73-.66.73h-12.79v12.13h13.99c.44,0,.66.24.66.73v5.24c0,.49-.22.73-.66.73h-20.75c-.44,0-.66-.24-.66-.73v-41.96c0-.49.22-.73.66-.73h20.75m0-12h-20.75c-7.1,0-12.66,5.59-12.66,12.73v41.96c0,7.14,5.56,12.73,12.66,12.73h20.75c7.1,0,12.66-5.59,12.66-12.73v-5.24c0-2.94-.95-5.62-2.55-7.76.87-1.74,1.36-3.72,1.36-5.83v-4.91c0-1.97-.42-3.82-1.19-5.47,1.5-2.09,2.38-4.68,2.38-7.52v-5.24c0-7.14-5.56-12.73-12.66-12.73h0Z"/></g><g><path d="m121.12,206.39c-3.31,0-6-2.69-6-6v-117.02c0-17.73-14.42-32.15-32.15-32.15s-32.15,14.42-32.15,32.15v117.02c0,3.31-2.69,6-6,6H12c-3.31,0-6-2.69-6-6v-117.02C6,40.93,40.53,6.4,82.97,6.4s76.97,34.53,76.97,76.97v117.02c0,3.31-2.69,6-6,6h-32.82Z"/><path class="cls-1" d="m82.97,12.4c39.13,0,70.97,31.84,70.97,70.97v117.02h-32.82v-117.02c0-21.04-17.12-38.15-38.15-38.15s-38.15,17.12-38.15,38.15v117.02H12v-117.02C12,44.24,43.84,12.4,82.97,12.4m0-12C37.22.4,0,37.62,0,83.37v117.02c0,6.63,5.37,12,12,12h32.82c6.63,0,12-5.37,12-12v-117.02c0-14.42,11.73-26.15,26.15-26.15s26.15,11.73,26.15,26.15v117.02c0,6.63,5.37,12,12,12h32.82c6.63,0,12-5.37,12-12v-117.02C165.94,37.62,128.72.4,82.97.4h0Z"/></g><g><path d="m218.27,206.39c-34.34,0-62.28-27.52-62.28-61.35,0-14.06,5.09-27.93,14.11-38.85-9.03-10.92-14.11-24.79-14.11-38.85,0-33.83,27.94-61.35,62.28-61.35h38.93c3.31,0,6,2.69,6,6v32.98c0,3.31-2.69,6-6,6h-38.93c-9.34,0-16.94,7.34-16.94,16.37s7.42,16.17,16.56,16.36c.12,0,.25,0,.38,0h38.94c3.31.02,5.99,2.71,5.99,6.01v32.98c0,3.31-2.69,6-6,6h-38.93c-.12,0-.25,0-.37,0-9.14.19-16.56,7.51-16.56,16.36s7.6,16.37,16.94,16.37h38.93c3.31,0,6,2.69,6,6v32.98c0,3.31-2.69,6-6,6h-38.93Z"/><path class="cls-1" d="m257.19,12v32.98h-38.93c-12.65,0-22.94,10.03-22.94,22.37s10.12,22.18,22.59,22.36c.11,0,.23,0,.34,0h38.93v32.99h-38.93c-.11,0-.22,0-.34,0-12.47.18-22.59,10.18-22.59,22.36s10.29,22.37,22.94,22.37h38.93v32.98h-38.93c-31.03,0-56.28-24.83-56.28-55.35,0-14.57,5.94-28.57,16.21-38.85-10.27-10.28-16.21-24.28-16.21-38.85,0-30.52,25.25-55.35,56.28-55.35h38.93m0-12h-38.93c-37.65,0-68.28,30.21-68.28,67.35,0,13.85,4.49,27.53,12.55,38.85-8.07,11.32-12.55,25-12.55,38.85,0,37.13,30.63,67.35,68.28,67.35h38.93c6.63,0,12-5.37,12-12v-32.98c0-6.63-5.37-12-12-12h-38.93c-6.03,0-10.94-4.65-10.94-10.37s4.73-10.18,10.58-10.36c.12,0,.24,0,.36,0h38.93c6.63,0,12-5.37,12-12v-32.98c0-6.62-5.36-11.99-11.98-12h-7s-31.95-.01-31.95-.01c-.12,0-.24,0-.36,0-5.85-.18-10.58-4.79-10.58-10.36s4.91-10.37,10.94-10.37h38.93c6.63,0,12-5.37,12-12V12c0-6.63-5.37-12-12-12h0Z"/></g><g><path d="m509.18,206.39c-3.31,0-6-2.69-6-6v-117.02c0-17.73-14.42-32.15-32.15-32.15s-32.15,14.42-32.15,32.15v117.02c0,3.31-2.69,6-6,6h-32.82c-3.31,0-6-2.69-6-6v-117.02c0-42.44,34.53-76.97,76.97-76.97s76.97,34.53,76.97,76.97v117.02c0,3.31-2.69,6-6,6h-32.82Z"/><path class="cls-1" d="m471.03,12.4c39.13,0,70.97,31.84,70.97,70.97v117.02h-32.82v-117.02c0-21.04-17.12-38.15-38.15-38.15s-38.15,17.12-38.15,38.15v117.02h-32.82v-117.02c0-39.13,31.84-70.97,70.97-70.97m0-12c-45.75,0-82.97,37.22-82.97,82.97v117.02c0,6.63,5.37,12,12,12h32.82c6.63,0,12-5.37,12-12v-117.02c0-14.42,11.73-26.15,26.15-26.15s26.15,11.73,26.15,26.15v117.02c0,6.63,5.37,12,12,12h32.82c6.63,0,12-5.37,12-12v-117.02c0-45.75-37.22-82.97-82.97-82.97h0Z"/></g><g><path d="m296.81,206.39c-3.31,0-6-2.69-6-6v-32.98c0-3.31,2.69-6,6-6h38.93c9.34,0,16.94-7.34,16.94-16.37s-7.42-16.17-16.56-16.36c-.12,0-.25,0-.38,0h-38.94c-3.31-.02-5.99-2.7-5.99-6.01v-32.98c0-3.31,2.69-6,6-6h38.93c.12,0,.25,0,.37,0,9.14-.19,16.56-7.51,16.56-16.36s-7.6-16.37-16.94-16.37h-38.93c-3.31,0-6-2.69-6-6V12c0-3.31,2.69-6,6-6h38.93c34.34,0,62.28,27.52,62.28,61.35,0,14.06-5.09,27.93-14.11,38.85,9.03,10.92,14.11,24.79,14.11,38.85,0,33.83-27.94,61.35-62.28,61.35h-38.93Z"/><path class="cls-1" d="m335.73,12c31.03,0,56.28,24.83,56.28,55.35,0,14.57-5.94,28.57-16.21,38.85,10.27,10.28,16.21,24.28,16.21,38.85,0,30.52-25.25,55.35-56.28,55.35h-38.93v-32.98h38.93c12.65,0,22.94-10.03,22.94-22.37s-10.12-22.18-22.59-22.36c-.11,0-.23,0-.34,0h-38.93v-32.99h38.93c.11,0,.22,0,.34,0,12.47-.18,22.59-10.18,22.59-22.36s-10.29-22.37-22.94-22.37h-38.93V12h38.93m0-12h-38.93c-6.63,0-12,5.37-12,12v32.98c0,6.63,5.37,12,12,12h38.93c6.03,0,10.94,4.65,10.94,10.37s-4.73,10.18-10.58,10.36c-.12,0-.24,0-.36,0h-38.93c-6.63,0-12,5.37-12,12v32.98c0,6.62,5.36,11.99,11.98,12h7s31.95.01,31.95.01c.12,0,.24,0,.36,0,5.85.18,10.58,4.79,10.58,10.36s-4.91,10.37-10.94,10.37h-38.93c-6.63,0-12,5.37-12,12v32.98c0,6.63,5.37,12,12,12h38.93c37.65,0,68.28-30.21,68.28-67.35,0-13.85-4.49-27.53-12.55-38.85,8.07-11.32,12.55-25,12.55-38.85,0-37.13-30.63-67.35-68.28-67.35h0Z"/></g><g><rect x="50.74" y="105.93" width="65.38" height="22.26" rx="6" ry="6"/><path class="cls-1" d="m110.13,111.93v10.26h-53.38v-10.26h53.38m0-12h-53.38c-6.63,0-12,5.37-12,12v10.26c0,6.63,5.37,12,12,12h53.38c6.63,0,12-5.37,12-12v-10.26c0-6.63-5.37-12-12-12h0Z"/></g><g><rect x="438.34" y="105.93" width="65.38" height="22.26" rx="6" ry="6"/><path class="cls-1" d="m497.72,111.93v10.26h-53.38v-10.26h53.38m0-12h-53.38c-6.63,0-12,5.37-12,12v10.26c0,6.63,5.37,12,12,12h53.38c6.63,0,12-5.37,12-12v-10.26c0-6.63-5.37-12-12-12h0Z"/></g><g><rect x="265.87" y="6" width="22.26" height="200.39" rx="6" ry="6"/><path class="cls-1" d="m282.13,12v188.39h-10.26V12h10.26m0-12h-10.26c-6.63,0-12,5.37-12,12v188.39c0,6.63,5.37,12,12,12h10.26c6.63,0,12-5.37,12-12V12c0-6.63-5.37-12-12-12h0Z"/></g></g><g><path d="m205.33,230.96h-24.86c-.44,0-.66.24-.66.73v5.24c0,.49.22.73.66.73h8.68v35.99c0,.49.22.73.66.73h6.17c.44,0,.66-.24.66-.73v-35.99h8.68c.44,0,.66-.24.66-.73v-5.24c0-.49-.22-.73-.66-.73Z"/><path d="m238.27,230.96h-6.03c-.49,0-.73.24-.73.73v17.17h-13.12v-17.17c0-.49-.22-.73-.66-.73h-6.1c-.44,0-.66.24-.66.73v41.96c0,.49.22.73.66.73h6.1c.44,0,.66-.24.66-.73v-18.1h13.12v18.1c0,.49.24.73.73.73h6.03c.49,0,.73-.24.73-.73v-41.96c0-.49-.24-.73-.73-.73Z"/><path d="m267.7,230.96h-20.75c-.44,0-.66.24-.66.73v41.96c0,.49.22.73.66.73h20.75c.44,0,.66-.24.66-.73v-5.24c0-.49-.22-.73-.66-.73h-13.99v-12.13h12.79c.44,0,.66-.24.66-.73v-4.91c0-.49-.22-.73-.66-.73h-12.79v-11.53h13.99c.44,0,.66-.24.66-.73v-5.24c0-.49-.22-.73-.66-.73Z"/><path d="m306.64,254.63c-.99-1.1-2.35-2.16-4.08-3.18l-6.96-4.11c-1.42-.8-2.44-1.65-3.08-2.55-.64-.91-.94-2.04-.89-3.41.04-1.5.47-2.62,1.29-3.35.82-.73,1.98-1.09,3.48-1.09,1.77,0,3.09.54,3.98,1.62.88,1.08,1.24,2.53,1.06,4.34-.04.66.15.99.6.99h6.1c.35,0,.57-.33.66-.99.35-3.98-.55-7.05-2.72-9.21-2.17-2.17-5.44-3.25-9.81-3.25-3.98,0-6.97.94-8.98,2.82-2.01,1.88-3.04,4.58-3.08,8.12-.04,2.7.47,4.94,1.56,6.73,1.08,1.79,2.86,3.44,5.34,4.94l7.16,4.24c.93.53,1.68,1.09,2.25,1.69.57.6.98,1.25,1.23,1.96.24.71.37,1.52.37,2.45,0,1.72-.44,3-1.33,3.81-.88.82-2.28,1.23-4.18,1.23s-3.3-.54-4.21-1.62c-.91-1.08-1.32-2.66-1.23-4.74.04-.62-.16-.93-.6-.93h-5.96c-.44,0-.69.31-.73.93-.35,3.98.47,7.12,2.49,9.41,2.01,2.3,5.36,3.45,10.04,3.45s7.87-.99,9.94-2.98c2.08-1.99,3.12-4.84,3.12-8.55.04-1.94-.17-3.61-.63-5-.46-1.39-1.19-2.64-2.19-3.75Z"/><path d="m322.06,230.96h-6.1c-.44,0-.66.24-.66.73v41.96c0,.49.22.73.66.73h6.1c.44,0,.66-.24.66-.73v-41.96c0-.49-.22-.73-.66-.73Z"/><path d="m353.21,230.96h-24.86c-.44,0-.66.24-.66.73v5.24c0,.49.22.73.66.73h8.68v35.99c0,.49.22.73.66.73h6.17c.44,0,.66-.24.66-.73v-35.99h8.68c.44,0,.66-.24.66-.73v-5.24c0-.49-.22-.73-.66-.73Z"/><path d="m380.25,230.96h-20.75c-.44,0-.66.24-.66.73v41.96c0,.49.22.73.66.73h20.75c.44,0,.66-.24.66-.73v-5.24c0-.49-.22-.73-.66-.73h-13.99v-12.13h12.79c.44,0,.66-.24.66-.73v-4.91c0-.49-.22-.73-.66-.73h-12.79v-11.53h13.99c.44,0,.66-.24.66-.73v-5.24c0-.49-.22-.73-.66-.73Z"/><path d="m82.97,12.4C43.84,12.4,12,44.24,12,83.37v117.02h32.82v-117.02c0-21.04,17.12-38.15,38.15-38.15s38.15,17.12,38.15,38.15v117.02h32.82v-117.02c0-39.13-31.84-70.97-70.97-70.97Z"/><path d="m250.19,200.39h7v-32.98h-38.93c-12.65,0-22.94-10.03-22.94-22.37s10.12-22.18,22.59-22.36c.12,0,.23,0,.34,0h38.93v-32.98h-7s-31.93-.01-31.93-.01c-.11,0-.23,0-.34,0-12.47-.18-22.59-10.19-22.59-22.36s10.29-22.37,22.94-22.37h38.93V12h-38.93c-31.03,0-56.28,24.83-56.28,55.35,0,14.57,5.94,28.57,16.21,38.85-10.27,10.28-16.21,24.28-16.21,38.85,0,30.52,25.25,55.35,56.28,55.35h31.93Z"/><path d="m471.03,12.4c-39.13,0-70.97,31.84-70.97,70.97v117.02h32.82v-117.02c0-21.04,17.12-38.15,38.15-38.15s38.15,17.12,38.15,38.15v117.02h32.82v-117.02c0-39.13-31.84-70.97-70.97-70.97Z"/><path d="m335.73,12h-38.93v32.98h38.93c12.65,0,22.94,10.03,22.94,22.37s-10.12,22.18-22.59,22.36c-.12,0-.23,0-.34,0h-38.93v32.98h7s31.93.01,31.93.01c.11,0,.23,0,.34,0,12.47.18,22.59,10.19,22.59,22.36s-10.29,22.37-22.94,22.37h-38.93v32.98h38.93c31.03,0,56.28-24.83,56.28-55.35,0-14.57-5.94-28.57-16.21-38.85,10.27-10.28,16.21-24.28,16.21-38.85,0-30.52-25.25-55.35-56.28-55.35Z"/><rect x="56.74" y="111.93" width="53.38" height="10.26"/><rect x="444.34" y="111.93" width="53.38" height="10.26"/><rect x="271.87" y="12" width="10.26" height="188.39"/></g></svg>